PathFileType	3	(X/Y/Z)	running_1__fused_aligned.trc
DataRate	CameraRate	NumFrames	NumMarkers	Units	OrigDataRate	OrigDataStartFrame	OrigNumFrames
100.0	100.0	12	19	mm	100.0	5827	6379
Frame#	Time	pelvis			neck			head			hip_left			hip_right			knee_left			knee_right			ankle_left			ankle_right			heel_left			heel_right			toe_left			toe_right			shoulder_left			shoulder_right			elbow_left			elbow_right			wrist_left			wrist_right			
		X1	Y1	Z1	X2	Y2	Z2	X3	Y3	Z3	X4	Y4	Z4	X5	Y5	Z5	X6	Y6	Z6	X7	Y7	Z7	X8	Y8	Z8	X9	Y9	Z9	X10	Y10	Z10	X11	Y11	Z11	X12	Y12	Z12	X13	Y13	Z13	X14	Y14	Z14	X15	Y15	Z15	X16	Y16	Z16	X17	Y17	Z17	X18	Y18	Z18	X19	Y19	Z19	
5827	58.26000	18.372620	958.158205	93.391634	1.497330	1495.989177	245.915939	5.186499	1575.456595	393.872018	94.131899	958.947738	87.942952	-57.386893	957.368657	98.840429	128.157892	531.994929	116.725387	-76.805499	540.467789	212.913391	109.683340	255.876375	-155.849446	-88.488173	147.105289	100.050940	99.922482	245.426950	-206.840079	-90.941219	100.408995	60.350761	121.018121	93.499701	-86.728315	-81.122741	80.170429	283.866393	165.102154	1478.295969	194.087342	-164.348336	1454.585825	204.504301	263.278739	1254.990952	81.231416	-263.855854	1229.887059	85.347993	194.737581	1148.743092	252.855237	-174.673094	1101.601840	251.425329
5828	58.27000	18.102910	957.880447	93.795277	1.454392	1495.662308	245.738544	5.619996	1575.084353	393.608160	93.871656	958.644649	88.566977	-57.666013	957.116230	99.023661	127.792295	533.038020	124.021211	-78.817959	538.945558	207.111497	110.239675	255.194986	-143.922922	-90.609998	149.241463	88.886084	100.790999	244.108965	-194.466586	-92.797765	103.732309	48.927092	120.679341	95.227769	-73.132599	-83.935070	80.042611	268.581204	164.367761	1478.342746	192.332322	-164.580357	1453.639043	205.641732	261.604874	1257.283985	74.211127	-263.232701	1226.721935	90.016270	200.216924	1146.347354	244.591364	-170.837894	1102.819981	256.741633
5829	58.28000	17.833199	957.602688	94.198920	1.411454	1495.335438	245.561149	6.053493	1574.712110	393.344302	93.611413	958.341559	89.191002	-57.945133	956.863803	99.206893	127.426698	534.081111	131.317035	-80.830419	537.423327	201.309603	110.796010	254.513597	-131.996399	-92.731823	151.377637	77.721228	101.659515	242.790981	-182.093094	-94.654310	107.055624	37.503423	120.340561	96.955837	-59.536882	-86.747399	79.914792	253.296015	163.633369	1478.389523	190.577301	-164.812377	1452.692260	206.779163	259.931009	1259.577017	67.190837	-262.609547	1223.556811	94.684546	205.696267	1143.951616	236.327492	-167.002694	1104.038122	262.057937
5830	58.29000	17.563489	957.324930	94.602563	1.368516	1495.008568	245.383755	6.486990	1574.339867	393.080443	93.351170	958.038469	89.815027	-58.224253	956.611376	99.390125	127.061102	535.124202	138.612858	-82.842878	535.901095	195.507709	111.352345	253.832209	-120.069875	-94.853649	153.513812	66.556372	102.528032	241.472996	-169.719601	-96.510855	110.378938	26.079753	120.001781	98.683905	-45.941165	-89.559729	79.786973	238.010826	162.898976	1478.436300	188.822281	-165.044397	1451.745478	207.916594	258.257144	1261.870050	60.170547	-261.986394	1220.391687	99.352823	211.175609	1141.555878	228.063619	-163.167494	1105.256262	267.374241
5831	58.30000	17.293779	957.047171	95.006205	1.325578	1494.681698	245.206360	6.920487	1573.967625	392.816585	93.090926	957.735379	90.439051	-58.503373	956.358949	99.573357	126.695505	536.167293	145.908682	-84.855338	534.378864	189.705814	111.908680	253.150820	-108.143352	-96.975474	155.649986	55.391516	103.396549	240.155011	-157.346108	-98.367401	113.702252	14.656084	119.663001	100.411973	-32.345449	-92.372058	79.659154	222.725637	162.164584	1478.483077	187.067261	-165.276417	1450.798695	209.054025	256.583279	1264.163083	53.150257	-261.363240	1217.226563	104.021100	216.654952	1139.160141	219.799746	-159.332294	1106.474403	272.690545
5832	58.31000	17.024069	956.769413	95.409848	1.282640	1494.354829	245.028965	7.353984	1573.595382	392.552727	92.830683	957.432289	91.063076	-58.782493	956.106521	99.756589	126.329909	537.210384	153.204506	-86.867798	532.856633	183.903920	112.465014	252.469431	-96.216828	-99.097299	157.786160	44.226659	104.265066	238.837026	-144.972615	-100.223946	117.025566	3.232415	119.324221	102.140041	-18.749732	-95.184387	79.531336	207.440448	161.430192	1478.529854	185.312241	-165.508438	1449.851913	210.191456	254.909414	1266.456115	46.129968	-260.740086	1214.061439	108.689376	222.134295	1136.764403	211.535873	-155.497095	1107.692544	278.006850
5833	58.32000	16.754359	956.491654	95.813491	1.239702	1494.027959	244.851571	7.787481	1573.223140	392.288869	92.570440	957.129199	91.687101	-59.061613	955.854094	99.939821	125.964312	538.253475	160.500329	-88.880257	531.334401	178.102026	113.021349	251.788043	-84.290305	-101.219125	159.922334	33.061803	105.133582	237.519041	-132.599122	-102.080492	120.348881	-8.191254	118.985441	103.868109	-5.154015	-97.996717	79.403517	192.155260	160.695799	1478.576631	183.557221	-165.740458	1448.905130	211.328887	253.235549	1268.749148	39.109678	-260.116933	1210.896315	113.357653	227.613638	1134.368665	203.272001	-151.661895	1108.910684	283.323154
5834	58.33000	16.484648	956.213896	96.217134	1.196764	1493.701089	244.674176	8.220978	1572.850897	392.025011	92.310197	956.826109	92.311126	-59.340733	955.601667	100.123052	125.598716	539.296566	167.796153	-90.892717	529.812170	172.300131	113.577684	251.106654	-72.363781	-103.340950	162.058508	21.896947	106.002099	236.201056	-120.225629	-103.937037	123.672195	-19.614924	118.646661	105.596177	8.441701	-100.809046	79.275698	176.870071	159.961407	1478.623408	181.802200	-165.972478	1447.958348	212.466318	251.561684	1271.042181	32.089388	-259.493779	1207.731191	118.025930	233.092981	1131.972927	195.008128	-147.826695	1110.128825	288.639458
5835	58.34000	16.214938	955.936137	96.620776	1.153825	1493.374219	244.496781	8.654475	1572.478654	391.761153	92.049953	956.523019	92.935151	-59.619853	955.349240	100.306284	125.233119	540.339657	175.091977	-92.905177	528.289939	166.498237	114.134019	250.425265	-60.437258	-105.462775	164.194683	10.732091	106.870616	234.883071	-107.852136	-105.793583	126.995509	-31.038593	118.307881	107.324245	22.037418	-103.621376	79.147879	161.584882	159.227014	1478.670185	180.047180	-166.204499	1447.011565	213.603749	249.887819	1273.335213	25.069099	-258.870626	1204.566067	122.694206	238.572324	1129.577189	186.744255	-143.991495	1111.346966	293.955762
5836	58.35000	15.945228	955.658379	97.024419	1.110887	1493.047350	244.319387	9.087972	1572.106412	391.497295	91.789710	956.219929	93.559175	-59.898973	955.096813	100.489516	124.867522	541.382748	182.387800	-94.917636	526.767707	160.696343	114.690354	249.743876	-48.510734	-107.584601	166.330857	-0.432765	107.739133	233.565086	-95.478643	-107.650128	130.318823	-42.462262	117.969101	109.052313	35.633135	-106.433705	79.020061	146.299693	158.492622	1478.716962	178.292160	-166.436519	1446.064783	214.741180	248.213954	1275.628246	18.048809	-258.247472	1201.400943	127.362483	244.051666	1127.181451	178.480383	-140.156295	1112.565107	299.272066
5837	58.36000	16.585092	954.019159	96.220997	2.195113	1491.363396	243.119719	10.261379	1570.255003	390.394714	92.421315	954.623512	92.862311	-59.250838	953.414792	99.579537	125.327636	540.343753	188.705590	-95.160020	524.858852	158.200291	115.794447	245.635818	-36.946232	-108.585309	170.982763	-13.532756	109.166146	228.350809	-83.430241	-108.450432	136.915945	-56.452127	118.358401	108.635674	50.591247	-108.534127	78.617579	127.725452	159.408880	1476.930564	176.103392	-165.580399	1444.048790	214.265918	248.139089	1274.612979	12.961905	-256.606522	1197.761693	129.026236	248.669499	1122.565380	173.806586	-137.767809	1110.950207	301.606592
5838	58.37000	17.224956	952.379939	95.417575	3.279340	1489.679442	241.920052	11.434785	1568.403594	389.292133	93.052919	953.027096	92.165446	-58.602702	951.732771	98.669557	125.787751	539.304759	195.023380	-95.402403	522.949996	155.704238	116.898539	241.527759	-25.381730	-109.586018	175.634669	-26.632747	110.593159	223.136532	-71.381840	-109.250736	143.513066	-70.441992	118.747702	108.219035	65.549358	-110.634549	78.215098	109.151211	160.325137	1475.144165	173.914624	-164.724278	1442.032798	213.790656	248.064224	1273.597713	7.875000	-254.965573	1194.122443	130.689990	253.287331	1117.949309	169.132790	-135.379322	1109.335307	303.941118
